HIERARCHY
ROOT Hips
{
	OFFSET -0.001795 -0.223333 0.028219
	CHANNELS 6 Xposition Yposition Zposition Zrotation Yrotation Xrotation 
	JOINT LeftUpLeg
	{
		OFFSET 0.069520 -0.091406 -0.006815
		CHANNELS 3 Zrotation Yrotation Xrotation
		JOINT LeftLeg
		{
			OFFSET 0.034277 -0.375199 -0.004496
			CHANNELS 3 Zrotation Yrotation Xrotation
			JOINT LeftFoot
			{
				OFFSET -0.013596 -0.397961 -0.043693
				CHANNELS 3 Zrotation Yrotation Xrotation
				JOINT LeftToe
				{
					OFFSET 0.026358 -0.055791 0.119288
					CHANNELS 3 Zrotation Yrotation Xrotation
					End Site
					{
						OFFSET 0.000000 0.000000 0.000000
					}
				}
			}
		}
	}
	JOINT RightUpLeg
	{
		OFFSET -0.067670 -0.090522 -0.004320
		CHANNELS 3 Zrotation Yrotation Xrotation
		JOINT RightLeg
		{
			OFFSET -0.038290 -0.382569 -0.008850
			CHANNELS 3 Zrotation Yrotation Xrotation
			JOINT RightFoot
			{
				OFFSET 0.015774 -0.398415 -0.042312
				CHANNELS 3 Zrotation Yrotation Xrotation
				JOINT RightToe
				{
					OFFSET -0.025372 -0.048144 0.123348
					CHANNELS 3 Zrotation Yrotation Xrotation
					End Site
					{
						OFFSET 0.000000 0.000000 0.000000
					}
				}
			}
		}
	}
	JOINT Spine
	{
		OFFSET -0.002533 0.108963 -0.026696
		CHANNELS 3 Zrotation Yrotation Xrotation
		JOINT Spine1
		{
			OFFSET 0.005487 0.135180 0.001092
			CHANNELS 3 Zrotation Yrotation Xrotation
			JOINT Spine2
			{
				OFFSET 0.001457 0.052922 0.025425
				CHANNELS 3 Zrotation Yrotation Xrotation
				JOINT Neck
				{
					OFFSET -0.002778 0.213870 -0.042857
					CHANNELS 3 Zrotation Yrotation Xrotation
					JOINT Head
					{
						OFFSET 0.005152 0.064970 0.051349
						CHANNELS 3 Zrotation Yrotation Xrotation
						End Site
						{
							OFFSET 0.000000 0.000000 0.000000
						}
					}
				}
				JOINT LeftShoulder
				{
					OFFSET 0.078845 0.121749 -0.034090
					CHANNELS 3 Zrotation Yrotation Xrotation
					JOINT LeftArm
					{
						OFFSET 0.090977 0.030469 -0.008868
						CHANNELS 3 Zrotation Yrotation Xrotation
						JOINT LeftForeArm
						{
							OFFSET 0.259612 -0.012772 -0.027456
							CHANNELS 3 Zrotation Yrotation Xrotation
							JOINT LeftHand
							{
								OFFSET 0.249234 0.008986 -0.001171
								CHANNELS 3 Zrotation Yrotation Xrotation
								End Site
								{
									OFFSET 0.000000 0.000000 0.000000
								}
							}
						}
					}
				}
				JOINT RightShoulder
				{
					OFFSET -0.081759 0.118833 -0.038615
					CHANNELS 3 Zrotation Yrotation Xrotation
					JOINT RightArm
					{
						OFFSET -0.096012 0.032551 -0.009143
						CHANNELS 3 Zrotation Yrotation Xrotation
						JOINT RightForeArm
						{
							OFFSET -0.253742 -0.013329 -0.021401
							CHANNELS 3 Zrotation Yrotation Xrotation
							JOINT RightHand
							{
								OFFSET -0.255298 0.007772 -0.005559
								CHANNELS 3 Zrotation Yrotation Xrotation
								End Site
								{
									OFFSET 0.000000 0.000000 0.000000
								}
							}
						}
					}
				}
			}
		}
	}
}
MOTION
Frames: 5
Frame Time: 0.050000
-0.032133 0.918765 -0.021297 -3.301583 6.226676 4.953961 8.869193 -1.024021 -26.197037 -2.626832 -0.721044 30.939048 1.464063 4.007268 1.854205 0.000000 0.000000 0.000000 -1.828429 1.970624 -27.249444 3.039190 -0.546954 27.068579 -4.176124 -11.302621 5.382216 0.000000 0.000000 0.000000 -7.084327 0.280530 9.538927 2.649726 -1.310239 0.507261 -1.314351 -9.138498 12.748669 -5.111624 3.798419 -10.336598 0.000000 0.000000 0.000000 9.347658 -13.307331 3.678804 -17.223146 -31.888815 1.199817 71.164724 -37.477612 -22.456390 0.000000 0.000000 0.000000 -9.904958 12.665679 4.284303 37.907315 21.471891 1.687706 -110.735018 59.811868 -77.111630 0.000000 0.000000 0.000000 
-0.031688 0.917196 -0.022137 -3.633791 5.542760 4.533523 9.312072 -0.867030 -25.729643 -2.972443 -0.553108 31.725184 1.646176 4.046596 1.125412 0.000000 0.000000 0.000000 -1.195504 2.145718 -27.114104 3.165956 -0.547350 27.837990 -4.182816 -11.254093 4.625199 0.000000 0.000000 0.000000 -7.335423 0.304480 9.559435 2.693500 -1.343934 0.694688 -1.715404 -9.796745 12.372804 -4.610185 3.391466 -9.132923 0.000000 0.000000 0.000000 10.054375 -13.216704 3.516183 -15.801956 -32.803767 1.168415 73.857093 -38.582228 -24.105547 0.000000 0.000000 0.000000 -11.514330 12.259994 4.288497 35.864157 21.428144 1.449152 -112.687839 59.754222 -79.971449 0.000000 0.000000 0.000000 
-0.031492 0.914058 -0.022953 -3.742116 4.868057 3.839366 9.759128 -0.713334 -25.442550 -3.415207 -0.357658 33.129806 2.087788 4.765919 0.694424 0.000000 0.000000 0.000000 -0.918524 2.244888 -27.051230 3.475951 -0.618432 28.845659 -4.489784 -11.824036 3.618210 0.000000 0.000000 0.000000 -7.364609 0.305306 9.918515 2.149170 -1.032580 0.040475 -2.217425 -10.518185 13.360997 -4.432005 3.195603 -8.629483 0.000000 0.000000 0.000000 9.688845 -13.691956 3.593776 -14.034028 -33.117076 0.897129 77.179648 -39.990290 -26.388969 0.000000 0.000000 0.000000 -13.846359 11.351796 4.226538 32.465654 22.124992 1.182042 -116.245739 58.246989 -83.004198 0.000000 0.000000 0.000000 
-0.031399 0.910076 -0.023734 -3.930677 4.360686 2.915483 9.698771 -0.666017 -25.216885 -3.322345 -0.422938 35.261538 2.136498 4.567315 -0.007612 0.000000 0.000000 0.000000 -0.284316 2.406933 -26.967252 3.663499 -0.676302 30.564759 -4.558876 -11.823649 2.482696 0.000000 0.000000 0.000000 -7.268990 0.285215 10.296744 1.765410 -0.882256 0.564772 -2.638645 -11.076594 13.094015 -3.735507 2.660887 -7.203526 0.000000 0.000000 0.000000 9.392358 -13.655322 3.570529 -13.180811 -33.978144 0.885338 80.645665 -42.815488 -30.141550 0.000000 0.000000 0.000000 -16.899795 11.040138 4.354832 27.695952 23.077774 0.897321 -116.724493 55.734722 -81.518336 0.000000 0.000000 0.000000 
-0.031491 0.905387 -0.024543 -3.966630 4.072250 2.068543 9.769759 -0.618183 -25.265195 -3.391544 -0.446052 37.569723 2.404219 4.842376 -0.708333 0.000000 0.000000 0.000000 -0.329530 2.405003 -26.848406 3.894534 -0.781215 32.432322 -4.568037 -11.715923 1.685918 0.000000 0.000000 0.000000 -6.928089 0.240610 10.811828 1.315305 -0.648053 0.283996 -3.144126 -11.128498 13.663271 -3.452797 2.459314 -6.255378 0.000000 0.000000 0.000000 9.215786 -14.593849 3.822871 -13.606611 -34.180907 0.986743 84.752278 -45.216535 -34.442554 0.000000 0.000000 0.000000 -19.913134 10.462664 4.349556 23.239210 24.041009 0.560345 -117.639074 53.473443 -80.220345 0.000000 0.000000 0.000000 
